<svg width="85" height="57" viewBox="0 0 85 57" fill="none" xmlns="http://www.w3.org/2000/svg">
<path d="M84.3049 26.5921V36.1614H77.3252L84.3049 26.5921Z" fill="#FF9500"/>
<path d="M84.3049 12.6469V26.5921L77.3252 36.1614H67.1139L84.3049 12.6469Z" fill="#EAEAEA"/>
<path d="M84.3049 10.3868V12.6469L67.1139 36.1614H52.9528L71.7582 10.3868H73.4031H78.622H84.3049" fill="#FF9500"/>
<path d="M80.8731 55.1316V56.0933H70.9797V55.1316H73.4031H78.6219H80.8731Z" fill="#5A5A5A"/>
<path d="M78.6219 36.1613V55.1316H73.403V36.1613H77.3251H78.6219Z" fill="#5A5A5A"/>
<path d="M78.6219 2.188V10.3868H73.403V2.188C73.403 0.985827 74.585 2.16332e-05 76.0272 2.16332e-05C77.4693 2.16332e-05 78.6219 0.985827 78.6219 2.188Z" fill="#5A5A5A"/>
<path d="M71.7582 10.3868L52.9528 36.1614H42.7415L61.5763 10.3868H71.7582Z" fill="#EAEAEA"/>
<path d="M61.5763 10.3868L42.7415 36.1614H28.5804L47.387 10.3868H61.5763Z" fill="#FF9500"/>
<path d="M47.387 10.3868L28.5805 36.1614H18.3704L37.204 10.3868H47.387" fill="#EAEAEA"/>
<path d="M37.2038 10.3868L18.3702 36.1614H4.20795L23.0133 10.3868H37.2038" fill="#FF9500"/>
<path d="M23.0134 10.3868L4.20801 36.1614H1.3811V26.0391L12.8327 10.3868H23.0134" fill="#EAEAEA"/>
<path d="M14.6772 55.1316V56.0933H4.75549V55.1316H7.20715H12.4283H14.6772Z" fill="#5A5A5A"/>
<path d="M12.8327 10.3869L1.3811 26.0391V10.3869H12.8327Z" fill="#FF9500"/>
<path d="M12.4284 36.1613V55.1316H7.20721V36.1613H12.4284Z" fill="#5A5A5A"/>
<path d="M12.4284 2.188V10.3868H7.20721V2.188C7.20721 0.985827 8.36094 2.16332e-05 9.80309 2.16332e-05C11.2452 2.16332e-05 12.4284 0.985827 12.4284 2.188Z" fill="#5A5A5A"/>
<path d="M85 36.7144H1.3811V35.5122H83.5578V10.3555H85V36.7144Z" fill="#E07A00"/>
<path d="M2.11452 36.1517H0.672363V9.79286H84.2924V10.995H2.11452V36.1517Z" fill="#F0F3F4"/>
<path d="M74.6897 48.0509H10.7551V45.8028H74.6897V48.0509Z" fill="#5A5A5A"/>
</svg>
