<svg width="433" height="104" viewBox="0 0 433 104" fill="none" xmlns="http://www.w3.org/2000/svg">
<path d="M188.09 61.8747C186.65 61.8747 186.015 61.2414 186.015 59.8014V22.4787C186.015 21.0387 186.65 20.404 188.09 20.404H197.362C198.571 20.404 199.32 20.8654 200.011 22.1334L205.195 31.5214C205.599 32.212 205.772 32.5 206.231 32.5H206.751C207.211 32.5 207.384 32.212 207.787 31.5214L212.914 22.1334C213.604 20.8654 214.352 20.404 215.562 20.404H224.894C226.334 20.404 226.967 21.0387 226.967 22.4787V59.8014C226.967 61.2414 226.334 61.8747 224.894 61.8747H216.023C214.526 61.8747 213.951 61.2414 213.951 59.8014V39.5267L210.552 45.8054C209.86 47.1294 208.998 47.648 207.5 47.648H205.195C203.698 47.648 202.835 47.1294 202.143 45.8054L198.744 39.5267V59.8014C198.744 61.2414 198.111 61.8747 196.672 61.8747H188.09Z" fill="white"/>
<path d="M244.537 41.2549H253.579L250.873 32.5003C250.585 31.8096 250.239 31.5216 249.779 31.5216H248.339C247.878 31.5216 247.533 31.8096 247.243 32.5003L244.537 41.2549ZM241.889 61.8749H233.421C231.981 61.8749 231.347 61.2416 231.347 59.8016V44.5949C231.347 42.2923 232.038 39.4123 233.594 35.3803L238.605 22.3056C239.065 20.9803 239.987 20.4043 241.542 20.4043H257.035C258.533 20.4043 259.454 20.9803 259.915 22.3056L264.926 35.3803C266.482 39.4123 267.173 42.2923 267.173 44.5949V59.8016C267.173 61.2416 266.539 61.8749 265.099 61.8749H256.402C254.846 61.8749 254.155 61.2416 254.155 59.8016V51.7376H243.961V59.8016C243.961 61.2416 243.327 61.8749 241.889 61.8749" fill="white"/>
<path d="M284.568 38.1449H288.888C290.904 38.1449 291.423 36.9929 291.423 35.4382V33.4795C291.423 31.9235 290.904 30.7729 288.888 30.7729H284.568V38.1449ZM273.625 61.8742C272.185 61.8742 271.551 61.2409 271.551 59.8009V22.4782C271.551 21.0382 272.185 20.4049 273.625 20.4049H292.805C301.444 20.4049 304.152 24.3209 304.152 30.0235V32.6729C304.152 35.8982 303.345 38.2022 300.927 39.2395C305.131 39.7009 307.895 42.7529 307.895 47.5902V59.8009C307.895 61.2409 307.261 61.8742 305.821 61.8742H296.893C295.453 61.8742 294.82 61.2409 294.82 59.8009V50.9889C294.82 49.2609 294.245 48.5115 292.632 48.5115H284.568V59.8009C284.568 61.2409 283.935 61.8742 282.495 61.8742H273.625Z" fill="white"/>
<path d="M313.714 61.8747C312.274 61.8747 311.639 61.2414 311.639 59.8014V22.4787C311.639 21.0387 312.274 20.404 313.714 20.404H322.986C324.195 20.404 324.944 20.8654 325.635 22.1334L330.819 31.5214C331.223 32.212 331.396 32.5 331.855 32.5H332.375C332.835 32.5 333.008 32.212 333.411 31.5214L338.538 22.1334C339.228 20.8654 339.976 20.404 341.186 20.404H350.518C351.958 20.404 352.591 21.0387 352.591 22.4787V59.8014C352.591 61.2414 351.958 61.8747 350.518 61.8747H341.647C340.15 61.8747 339.575 61.2414 339.575 59.8014V39.5267L336.176 45.8054C335.484 47.1294 334.622 47.648 333.124 47.648H330.819C329.322 47.648 328.459 47.1294 327.767 45.8054L324.368 39.5267V59.8014C324.368 61.2414 323.735 61.8747 322.296 61.8747H313.714Z" fill="white"/>
<path d="M375.114 51.6227C379.319 51.6227 379.952 50.4707 379.952 48.916V33.4214C379.952 31.924 379.319 30.772 375.114 30.772C370.968 30.772 370.276 31.924 370.276 33.4214V48.916C370.276 50.4707 370.968 51.6227 375.114 51.6227ZM375.114 62.7387C360.715 62.7387 357.202 58.016 357.202 50.988V31.348C357.202 24.3214 360.715 19.54 375.114 19.54C389.514 19.54 392.97 24.3214 392.97 31.348V50.988C392.97 58.016 389.514 62.7387 375.114 62.7387Z" fill="white"/>
<path d="M399.651 61.8747C398.211 61.8747 397.577 61.2414 397.577 59.8014V22.4787C397.577 21.0387 398.211 20.404 399.651 20.404H408.578C410.018 20.404 410.651 21.0387 410.651 22.4787V50.988H418.542V41.6574C418.542 40.2187 419.177 39.5854 420.617 39.5854H428.967C430.407 39.5854 431.041 40.2187 431.041 41.6574V59.8014C431.041 61.2414 430.407 61.8747 428.967 61.8747H399.651Z" fill="white"/>
<path d="M202.056 93.3733C203.381 93.3733 203.793 92.78 203.793 91.5453V85.24C203.793 84.0973 204.296 83.5946 205.437 83.5946H214.303C215.445 83.5946 215.948 84.052 215.948 85.24V90.1746C215.948 91.3173 215.445 91.82 214.303 91.82H213.251V93.876C213.251 98.7653 210.372 101.919 205.072 101.919H192.368C186.749 101.919 183.732 98.7653 183.732 93.876V90.22C183.732 85.9253 186.2 83.4573 189.489 83.1373C187.479 82.2693 186.795 80.5333 186.795 78.2026V76.0093C186.795 71.988 189.353 69.0173 195.568 69.0173H205.209C206.352 69.0173 206.855 69.52 206.855 70.6626V75.9173C206.855 77.06 206.352 77.5626 205.209 77.5626H198.537C197.076 77.5626 196.801 78.2026 196.801 78.9333V79.8933C196.801 80.624 197.076 81.264 198.537 81.264H199.223C200.365 81.264 200.868 81.7666 200.868 82.9093V87.616C200.868 88.7586 200.365 89.2613 199.223 89.2613H195.568C194.105 89.2613 193.831 89.8546 193.831 90.5853V92.0026C193.831 92.7333 194.105 93.3733 195.568 93.3733H202.056Z" fill="white"/>
<path d="M236.922 101.918C229.246 101.918 225.681 98.9476 225.681 92.5969V78.3396C225.681 71.9876 229.246 69.0183 236.922 69.0183H248.346C249.489 69.0183 249.991 69.5209 249.991 70.6636V76.1916C249.991 77.3343 249.489 77.8369 248.346 77.8369H238.841C236.922 77.8369 236.055 78.5676 236.055 80.1223V91.0423C236.055 92.5969 236.739 93.2823 238.157 93.2823H242.589V86.1529C242.589 85.0116 243.091 84.5089 244.234 84.5089H251.317C252.458 84.5089 252.961 85.0116 252.961 86.1529V100.273C252.961 101.416 252.458 101.918 251.317 101.918H236.922Z" fill="white"/>
<path d="M266.718 83.0922H270.144C271.744 83.0922 272.155 82.1776 272.155 80.9442V79.3909C272.155 78.1576 271.744 77.2429 270.144 77.2429H266.718V83.0922ZM258.035 101.919C256.894 101.919 256.39 101.416 256.39 100.274V70.6629C256.39 69.5202 256.894 69.0176 258.035 69.0176H273.251C280.106 69.0176 282.254 72.1256 282.254 76.6482V78.7509C282.254 81.3096 281.614 83.1376 279.694 83.9602C283.03 84.3256 285.224 86.7482 285.224 90.5856V100.274C285.224 101.416 284.722 101.919 283.579 101.919H276.496C275.354 101.919 274.851 101.416 274.851 100.274V93.2829C274.851 91.9109 274.394 91.3176 273.115 91.3176H266.718V100.274C266.718 101.416 266.215 101.919 265.072 101.919H258.035Z" fill="white"/>
<path d="M297.974 85.5596H305.147L303.001 78.6143C302.771 78.0649 302.498 77.8369 302.131 77.8369H300.99C300.623 77.8369 300.349 78.0649 300.121 78.6143L297.974 85.5596ZM295.871 101.918H289.154C288.011 101.918 287.509 101.416 287.509 100.273V88.2103C287.509 86.3823 288.058 84.0969 289.291 80.8983L293.267 70.5263C293.633 69.4756 294.363 69.0183 295.598 69.0183H307.89C309.077 69.0183 309.809 69.4756 310.174 70.5263L314.15 80.8983C315.383 84.0969 315.931 86.3823 315.931 88.2103V100.273C315.931 101.416 315.429 101.918 314.286 101.918H307.387C306.153 101.918 305.605 101.416 305.605 100.273V93.8756H297.517V100.273C297.517 101.416 297.014 101.918 295.871 101.918Z" fill="white"/>
<path d="M321.051 101.918C319.91 101.918 319.406 101.416 319.406 100.273V70.6636C319.406 69.5209 319.91 69.0183 321.051 69.0183H325.803C326.991 69.0183 327.723 69.3369 328.499 70.2516L337.363 80.3956V70.6636C337.363 69.5209 337.866 69.0183 339.01 69.0183H345.863C347.006 69.0183 347.508 69.5209 347.508 70.6636V100.273C347.508 101.416 347.006 101.918 345.863 101.918H339.01C337.866 101.918 337.363 101.416 337.363 100.273V94.6529L329.55 85.1943V100.273C329.55 101.416 329.047 101.918 327.906 101.918H321.051Z" fill="white"/>
<path d="M350.935 100.273V94.8357C350.935 93.6931 351.438 93.1904 352.579 93.1904H357.104V77.8371H352.579C351.438 77.8371 350.935 77.3344 350.935 76.1917V70.6624C350.935 69.5211 351.438 69.0184 352.579 69.0184H372.046C373.188 69.0184 373.691 69.5211 373.691 70.6624V76.1917C373.691 77.3344 373.188 77.8371 372.046 77.8371H367.614V93.1904H372.046C373.188 93.1904 373.691 93.6931 373.691 94.8357V100.273C373.691 101.416 373.188 101.918 372.046 101.918H352.579C351.438 101.918 350.935 101.416 350.935 100.273Z" fill="white"/>
<path d="M385.298 101.918C384.157 101.918 383.654 101.416 383.654 100.273V77.8369H376.937C375.794 77.8369 375.292 77.3343 375.292 76.1916V70.6636C375.292 69.5209 375.794 69.0183 376.937 69.0183H401.062C402.206 69.0183 402.709 69.5209 402.709 70.6636V76.1916C402.709 77.3343 402.206 77.8369 401.062 77.8369H394.346V100.273C394.346 101.416 393.844 101.918 392.701 101.918H385.298Z" fill="white"/>
<path d="M418.474 93.7849C421.809 93.7849 422.312 92.8702 422.312 91.6369V79.3449C422.312 78.1569 421.809 77.2436 418.474 77.2436C415.184 77.2436 414.636 78.1569 414.636 79.3449V91.6369C414.636 92.8702 415.184 93.7849 418.474 93.7849ZM418.474 102.604C407.05 102.604 404.262 98.8569 404.262 93.2822V77.7009C404.262 72.1249 407.05 68.3329 418.474 68.3329C429.897 68.3329 432.64 72.1249 432.64 77.7009V93.2822C432.64 98.8569 429.897 102.604 418.474 102.604Z" fill="white"/>
<path d="M186.55 7.58563C186.55 5.4323 187.062 3.7003 188.084 2.38963C189.126 1.09497 190.494 0.446968 192.195 0.446968C193.536 0.446968 194.695 0.877634 195.675 1.73497C196.668 2.6083 197.226 3.7003 197.346 5.01097H195.63C195.554 4.1523 195.186 3.4283 194.522 2.84163C193.859 2.26963 193.084 1.98297 192.195 1.98297C190.962 1.98297 189.974 2.57097 189.238 3.74563C188.59 4.79897 188.266 6.0803 188.266 7.58563C188.266 9.0603 188.596 10.3176 189.259 11.3576C189.996 12.5016 190.976 13.0736 192.195 13.0736C193.204 13.0736 194.019 12.7723 194.635 12.1696C195.267 11.5683 195.599 10.763 195.63 9.7523H197.346C197.346 11.2296 196.879 12.403 195.946 13.2776C194.998 14.1656 193.746 14.6096 192.195 14.6096C190.494 14.6096 189.126 13.9696 188.084 12.6896C187.062 11.4096 186.55 9.70697 186.55 7.58563Z" fill="white"/>
<path d="M192.196 0.894845C190.624 0.894845 189.392 1.47618 188.434 2.66951C187.481 3.88818 186.997 5.54418 186.997 7.58551C186.997 9.59484 187.48 11.2175 188.436 12.4108C189.39 13.5882 190.621 14.1628 192.196 14.1628C193.644 14.1628 194.77 13.7655 195.64 12.9508C196.392 12.2482 196.801 11.3442 196.884 10.2002H196.045C195.936 11.1308 195.565 11.9015 194.944 12.4948C194.248 13.1735 193.321 13.5215 192.196 13.5215C190.821 13.5215 189.706 12.8748 188.885 11.5988C188.177 10.4908 187.818 9.14151 187.818 7.58551C187.818 6.00418 188.168 4.63218 188.857 3.51084C189.681 2.20018 190.802 1.53618 192.196 1.53618C193.19 1.53618 194.07 1.86151 194.816 2.50285C195.46 3.07485 195.862 3.76684 196.017 4.56284H196.833C196.644 3.58151 196.166 2.76151 195.38 2.07218C194.477 1.27885 193.436 0.894845 192.196 0.894845ZM192.196 15.0575C190.361 15.0575 188.862 14.3548 187.737 12.9708C186.653 11.6148 186.104 9.80418 186.104 7.58551C186.104 5.33884 186.65 3.49884 187.733 2.11484C188.86 0.710845 190.361 0.000178917 192.196 0.000178917C193.641 0.000178917 194.91 0.470845 195.97 1.39885C197.048 2.34685 197.661 3.54818 197.792 4.96818L197.836 5.45618H195.22L195.184 5.04951C195.118 4.30284 194.805 3.69084 194.225 3.17484C193.646 2.67484 192.981 2.43085 192.196 2.43085C191.116 2.43085 190.272 2.93884 189.616 3.98284C189.017 4.95618 188.713 6.17084 188.713 7.58551C188.713 8.96818 189.024 10.1562 189.637 11.1175C190.29 12.1322 191.128 12.6268 192.196 12.6268C193.092 12.6268 193.788 12.3722 194.324 11.8508C194.876 11.3255 195.156 10.6348 195.181 9.74018L195.194 9.30551H197.793V9.75351C197.793 11.3508 197.274 12.6468 196.25 13.6042C195.224 14.5668 193.858 15.0575 192.196 15.0575" fill="white"/>
<path d="M205.397 7.58563C205.397 9.24163 205.805 10.5736 206.617 11.583C207.429 12.5776 208.514 13.0736 209.869 13.0736C211.21 13.0736 212.286 12.5776 213.098 11.583C213.913 10.5736 214.318 9.24163 214.318 7.58563C214.318 5.88297 213.913 4.5283 213.098 3.51897C212.286 2.4963 211.21 1.98297 209.869 1.98297C208.514 1.98297 207.429 2.4963 206.617 3.51897C205.805 4.5283 205.397 5.88297 205.397 7.58563ZM203.681 7.58563C203.681 5.4323 204.246 3.7003 205.373 2.38963C206.505 1.09497 208.002 0.446968 209.869 0.446968C211.736 0.446968 213.228 1.09497 214.341 2.38963C215.473 3.7003 216.036 5.4323 216.036 7.58563C216.036 9.70697 215.473 11.4096 214.341 12.6896C213.228 13.9696 211.736 14.6096 209.869 14.6096C208.002 14.6096 206.505 13.9696 205.373 12.6896C204.246 11.4096 203.681 9.70697 203.681 7.58563" fill="white"/>
<path d="M209.87 2.43066C208.647 2.43066 207.698 2.87733 206.967 3.79599C206.223 4.72266 205.845 5.99599 205.845 7.58533C205.845 9.12933 206.223 10.3787 206.966 11.3027C207.694 12.1933 208.643 12.6267 209.87 12.6267C211.081 12.6267 212.023 12.1933 212.754 11.3C213.495 10.38 213.873 9.12933 213.873 7.58533C213.873 5.99599 213.495 4.72266 212.751 3.79999C212.018 2.87733 211.077 2.43066 209.87 2.43066ZM209.87 13.5213C208.381 13.5213 207.17 12.964 206.273 11.8667C205.395 10.7773 204.951 9.33733 204.951 7.58533C204.951 5.78666 205.395 4.32533 206.269 3.23866C207.166 2.10933 208.378 1.53599 209.87 1.53599C211.346 1.53599 212.551 2.10933 213.45 3.23999C214.323 4.32399 214.767 5.78666 214.767 7.58533C214.767 9.33866 214.323 10.7787 213.449 11.864C212.547 12.964 211.345 13.5213 209.87 13.5213ZM209.87 0.894662C208.122 0.894662 206.762 1.47866 205.713 2.68399C204.662 3.90266 204.127 5.55199 204.127 7.58533C204.127 9.58666 204.662 11.2053 205.71 12.3933C206.761 13.584 208.121 14.1627 209.87 14.1627C211.618 14.1627 212.97 13.5853 214.006 12.396C215.057 11.2053 215.589 9.58666 215.589 7.58533C215.589 5.55066 215.055 3.90133 214.005 2.68133C212.969 1.47866 211.617 0.894662 209.87 0.894662V0.894662ZM209.87 15.0573C207.878 15.0573 206.253 14.36 205.039 12.9853C203.842 11.6267 203.234 9.81199 203.234 7.58533C203.234 5.33199 203.841 3.48666 205.037 2.09733C206.251 0.706661 207.878 -5.46034e-06 209.87 -5.46034e-06C211.865 -5.46034e-06 213.483 0.706661 214.681 2.09733C215.877 3.48399 216.483 5.33066 216.483 7.58533C216.483 9.81199 215.875 11.628 214.677 12.9853C213.482 14.3587 211.863 15.0573 209.87 15.0573Z" fill="white"/>
<path d="M223.207 14.4515V0.719493H224.924L231.79 11.5382V0.719493H233.508V14.4515H231.79L224.924 3.65416V14.4515H223.207Z" fill="white"/>
<path d="M232.036 14.0043H233.061V1.16694H232.237V13.0763L224.68 1.16694H223.656V14.0043H224.477V2.11894L232.036 14.0043ZM233.954 14.8989H231.546L225.372 5.19094V14.8989H222.762V0.272276H225.17L231.344 9.99894V0.272276H233.954V14.8989Z" fill="white"/>
<path d="M240.521 9.82133H242.237C242.237 10.86 242.554 11.688 243.185 12.3053C243.802 12.9373 244.632 13.2547 245.67 13.2547C246.71 13.2547 247.538 13.02 248.157 12.5533C248.788 12.088 249.104 11.4627 249.104 10.68C249.104 9.97066 248.734 9.40666 247.997 8.98533C247.456 8.684 246.68 8.44266 245.67 8.26266C244.33 8.02133 243.222 7.57733 242.35 6.93066C241.357 6.17733 240.86 5.252 240.86 4.152C240.86 3.03733 241.297 2.14133 242.169 1.46266C243.044 0.786664 244.21 0.447998 245.67 0.447998C247.132 0.447998 248.298 0.846665 249.172 1.644C250.046 2.444 250.482 3.504 250.482 4.82933H248.766C248.614 3.97066 248.261 3.27866 247.704 2.752C247.132 2.23866 246.453 1.984 245.67 1.984C244.737 1.984 243.985 2.18 243.412 2.57066C242.856 2.96266 242.576 3.48933 242.576 4.152C242.576 4.844 242.901 5.424 243.549 5.892C244.09 6.29733 244.797 6.576 245.67 6.72666C247.161 6.98266 248.328 7.37333 249.172 7.90133C250.27 8.564 250.821 9.43733 250.821 10.5213C250.821 11.816 250.353 12.848 249.421 13.616C248.472 14.3987 247.221 14.7907 245.67 14.7907C244.12 14.7907 242.87 14.3387 241.922 13.4347C240.988 12.532 240.521 11.3267 240.521 9.82133Z" fill="white"/>
<path d="M240.984 10.2685C241.066 11.4472 241.476 12.3819 242.233 13.1139C243.1 13.9405 244.225 14.3432 245.672 14.3432C247.109 14.3432 248.276 13.9832 249.136 13.2712C249.968 12.5859 250.374 11.6859 250.374 10.5205C250.374 9.59787 249.905 8.86454 248.942 8.2832C248.146 7.78587 247.022 7.4112 245.596 7.16854C244.658 7.00587 243.878 6.69654 243.281 6.24987C242.518 5.6992 242.129 4.99254 242.129 4.15254C242.129 3.3392 242.474 2.68454 243.156 2.20587C243.806 1.76054 244.652 1.53654 245.672 1.53654C246.564 1.53654 247.346 1.83254 248.002 2.41787C248.553 2.9392 248.929 3.59654 249.126 4.38187H250.017C249.93 3.3912 249.556 2.5992 248.87 1.97387C248.074 1.2472 247.028 0.895203 245.672 0.895203C244.318 0.895203 243.233 1.20454 242.445 1.81654C241.678 2.40854 241.308 3.17387 241.308 4.15254C241.308 5.1112 241.736 5.90454 242.621 6.57387C243.432 7.17387 244.485 7.59387 245.75 7.8232C246.818 8.01387 247.624 8.2672 248.216 8.5952C249.105 9.10187 249.552 9.8032 249.552 10.6792C249.552 11.6099 249.172 12.3619 248.421 12.9139C247.733 13.4352 246.804 13.7019 245.672 13.7019C244.512 13.7019 243.568 13.3365 242.866 12.6165C242.25 12.0152 241.894 11.2245 241.81 10.2685H240.984ZM245.672 15.2379C244.009 15.2379 242.644 14.7405 241.614 13.7592C240.592 12.7699 240.074 11.4459 240.074 9.82187V9.37387H242.685V9.82187C242.685 10.7432 242.953 11.4512 243.498 11.9859C244.041 12.5405 244.748 12.8072 245.672 12.8072C246.606 12.8072 247.352 12.6019 247.886 12.1979C248.406 11.8139 248.658 11.3179 248.658 10.6792C248.658 10.1325 248.378 9.71654 247.776 9.37387C247.286 9.10187 246.549 8.87387 245.593 8.7032C244.189 8.44987 243.012 7.9752 242.084 7.28987C240.973 6.4472 240.413 5.39254 240.413 4.15254C240.413 2.89787 240.912 1.87387 241.896 1.1112C242.845 0.37387 244.116 0.000536237 245.672 0.000536237C247.238 0.000536237 248.52 0.44187 249.474 1.31387C250.441 2.19787 250.929 3.3792 250.929 4.82987V5.27654H248.392L248.326 4.9072C248.19 4.13787 247.886 3.54054 247.397 3.07654C246.913 2.6432 246.345 2.4312 245.672 2.4312C244.834 2.4312 244.16 2.60187 243.665 2.94054C243.23 3.24587 243.024 3.63254 243.024 4.15254C243.024 4.69654 243.282 5.1472 243.81 5.52854C244.3 5.89654 244.95 6.14854 245.748 6.28587C247.289 6.5512 248.521 6.9672 249.409 7.52187C250.642 8.26587 251.268 9.2752 251.268 10.5205C251.268 11.9499 250.742 13.1072 249.705 13.9605C248.678 14.8072 247.324 15.2379 245.672 15.2379" fill="white"/>
<path d="M256.817 2.255V0.719005H267.118V2.255H262.804V14.451H261.085V2.255H256.817Z" fill="white"/>
<path d="M261.533 14.0043H262.355V1.80827H266.671V1.16694H257.263V1.80827H261.533V14.0043ZM263.25 14.8989H260.638V2.70161H256.37V0.272276H267.563V2.70161H263.25V14.8989Z" fill="white"/>
<path d="M275.576 7.26858H279.777C280.605 7.26858 281.275 7.04192 281.788 6.58458C282.284 6.11392 282.533 5.49925 282.533 4.73925C282.533 3.99392 282.284 3.39392 281.788 2.93792C281.275 2.48192 280.605 2.25525 279.777 2.25525H275.576V7.26858ZM273.86 14.4512V0.719249H279.777C281.133 0.719249 282.217 1.08858 283.031 1.82592C283.844 2.55125 284.251 3.52325 284.251 4.74458C284.251 5.49925 284.055 6.18458 283.663 6.80192C283.241 7.42058 282.691 7.85792 282.015 8.11525C282.511 8.46192 282.901 8.88192 283.188 9.37792C283.491 9.90325 283.64 10.4526 283.64 11.0232L283.731 13.6846C283.731 13.8339 283.813 14.0379 283.98 14.2939L284.069 14.4512H282.353L282.307 14.3606C282.111 14.0299 282.015 13.7739 282.015 13.5926L281.923 11.0179C281.923 10.3552 281.631 9.81392 281.043 9.39125C280.5 9.00058 279.852 8.80591 279.101 8.80591H275.576V14.4512H273.86Z" fill="white"/>
<path d="M276.024 6.82257H279.777C280.497 6.82257 281.058 6.63457 281.49 6.25191C281.888 5.87457 282.086 5.37591 282.086 4.73991C282.086 4.11991 281.889 3.63857 281.485 3.26657C281.058 2.88791 280.497 2.70257 279.777 2.70257H276.024V6.82257ZM279.777 7.71591H275.129V1.80791H279.777C280.717 1.80791 281.493 2.07591 282.086 2.60524C282.681 3.15191 282.98 3.86657 282.98 4.73991C282.98 5.62257 282.682 6.35191 282.094 6.90924C281.493 7.44791 280.717 7.71591 279.777 7.71591ZM282.618 14.0039H283.336C283.3 13.8932 283.282 13.7866 283.282 13.6839L283.192 11.0386C283.192 10.5332 283.06 10.0546 282.8 9.59991C282.55 9.16391 282.198 8.78924 281.76 8.48257L281.062 7.99724L281.856 7.69724C282.45 7.47191 282.921 7.09724 283.292 6.55057C283.633 6.01324 283.802 5.41857 283.802 4.74391C283.802 3.64791 283.453 2.80257 282.733 2.15991C282.005 1.49991 281.013 1.16657 279.777 1.16657H274.306V14.0039H275.129V8.35857H279.101C279.945 8.35857 280.686 8.58391 281.304 9.02924C282.01 9.53724 282.37 10.2066 282.37 11.0172L282.461 13.5772C282.461 13.6052 282.465 13.7186 282.618 14.0039V14.0039ZM284.837 14.8986H282.077L281.908 14.5639C281.68 14.1772 281.566 13.8612 281.566 13.5932L281.477 11.0346C281.477 10.5039 281.249 10.0906 280.781 9.75457C280.313 9.41591 279.764 9.25191 279.101 9.25191H276.024V14.8986H273.412V0.271907H279.777C281.241 0.271907 282.437 0.683907 283.329 1.49457C284.236 2.30124 284.697 3.39591 284.697 4.74391C284.697 5.58124 284.477 6.35457 284.04 7.04257C283.706 7.53191 283.304 7.91991 282.832 8.20924C283.125 8.49191 283.376 8.80791 283.576 9.15457C283.914 9.74657 284.086 10.3746 284.086 11.0239L284.177 13.6706C284.177 13.6879 284.185 13.7879 284.354 14.0492L284.837 14.8986Z" fill="white"/>
<path d="M291.218 10.3415V0.718784H292.935V10.3415C292.935 11.1535 293.288 11.8241 293.995 12.3508C294.659 12.8335 295.448 13.0735 296.368 13.0735C297.286 13.0735 298.078 12.8335 298.74 12.3508C299.447 11.8241 299.8 11.1535 299.8 10.3415V0.718784H301.518V10.3415C301.518 11.5908 300.99 12.6215 299.936 13.4348C298.943 14.2188 297.752 14.6095 296.368 14.6095C294.982 14.6095 293.792 14.2188 292.799 13.4348C291.746 12.6215 291.218 11.5908 291.218 10.3415Z" fill="white"/>
<path d="M291.664 1.16629V10.341C291.664 11.4543 292.124 12.3503 293.072 13.0823C293.983 13.7996 295.091 14.1623 296.368 14.1623C297.644 14.1623 298.751 13.7996 299.659 13.0836C300.61 12.3503 301.071 11.4543 301.071 10.341V1.16629H300.247V10.341C300.247 11.2983 299.831 12.0956 299.007 12.709C298.264 13.249 297.378 13.521 296.368 13.521C295.358 13.521 294.47 13.249 293.734 12.7116C292.907 12.097 292.487 11.2996 292.487 10.341V1.16629H291.664ZM296.368 15.057C294.886 15.057 293.591 14.629 292.522 13.7863C291.359 12.8903 290.771 11.7316 290.771 10.341V0.271628H293.38V10.341C293.38 11.0103 293.67 11.5516 294.262 11.9916C294.85 12.417 295.538 12.6263 296.368 12.6263C297.186 12.6263 297.895 12.4116 298.476 11.989C299.067 11.5503 299.354 11.0103 299.354 10.341V0.271628H301.966V10.341C301.966 11.7316 301.374 12.8916 300.21 13.789C299.143 14.629 297.85 15.057 296.368 15.057" fill="white"/>
<path d="M308.486 7.58563C308.486 5.4323 308.997 3.7003 310.021 2.38963C311.061 1.09497 312.43 0.446968 314.131 0.446968C315.471 0.446968 316.631 0.877634 317.611 1.73497C318.605 2.6083 319.161 3.7003 319.283 5.01097H317.566C317.49 4.1523 317.121 3.4283 316.458 2.84163C315.795 2.26963 315.021 1.98297 314.131 1.98297C312.898 1.98297 311.91 2.57097 311.173 3.74563C310.526 4.79897 310.202 6.0803 310.202 7.58563C310.202 9.0603 310.534 10.3176 311.195 11.3576C311.934 12.5016 312.911 13.0736 314.131 13.0736C315.141 13.0736 315.955 12.7723 316.571 12.1696C317.203 11.5683 317.534 10.763 317.566 9.7523H319.283C319.283 11.2296 318.815 12.403 317.881 13.2776C316.933 14.1656 315.682 14.6096 314.131 14.6096C312.43 14.6096 311.061 13.9696 310.021 12.6896C308.997 11.4096 308.486 9.70697 308.486 7.58563Z" fill="white"/>
<path d="M314.132 0.894845C312.56 0.894845 311.328 1.47618 310.371 2.66951C309.417 3.88818 308.933 5.54418 308.933 7.58551C308.933 9.59484 309.417 11.2175 310.371 12.4108C311.327 13.5882 312.557 14.1628 314.132 14.1628C315.58 14.1628 316.707 13.7655 317.576 12.9508C318.327 12.2482 318.737 11.3442 318.819 10.2002H317.981C317.872 11.1308 317.503 11.9015 316.881 12.4948C316.183 13.1735 315.259 13.5215 314.132 13.5215C312.756 13.5215 311.643 12.8748 310.821 11.5988C310.112 10.4908 309.756 9.14151 309.756 7.58551C309.756 6.00418 310.104 4.63218 310.792 3.51084C311.616 2.20018 312.74 1.53618 314.132 1.53618C315.127 1.53618 316.008 1.86151 316.752 2.50285C317.396 3.07485 317.799 3.76684 317.953 4.56284H318.769C318.58 3.58151 318.101 2.76151 317.316 2.07218C316.413 1.27885 315.372 0.894845 314.132 0.894845ZM314.132 15.0575C312.299 15.0575 310.797 14.3548 309.673 12.9708C308.589 11.6148 308.039 9.80418 308.039 7.58551C308.039 5.33884 308.588 3.49884 309.669 2.11484C310.796 0.710845 312.297 0.000178917 314.132 0.000178917C315.577 0.000178917 316.847 0.470845 317.905 1.39885C318.984 2.34685 319.596 3.54818 319.727 4.96818L319.771 5.45618H317.157L317.12 5.04951C317.055 4.30284 316.741 3.69084 316.161 3.17484C315.583 2.67484 314.917 2.43085 314.132 2.43085C313.052 2.43085 312.208 2.93884 311.551 3.98284C310.955 4.95618 310.651 6.17084 310.651 7.58551C310.651 8.96818 310.96 10.1562 311.573 11.1175C312.227 12.1322 313.065 12.6268 314.132 12.6268C315.029 12.6268 315.724 12.3722 316.26 11.8508C316.812 11.3255 317.092 10.6348 317.119 9.74018L317.132 9.30551H319.728V9.75351C319.728 11.3508 319.212 12.6468 318.187 13.6042C317.159 14.5668 315.793 15.0575 314.132 15.0575Z" fill="white"/>
<path d="M325.233 2.255V0.719005H335.533V2.255H331.219V14.451H329.501V2.255H325.233Z" fill="white"/>
<path d="M329.948 14.0043H330.772V1.80827H335.087V1.16694H325.68V1.80827H329.948V14.0043ZM331.667 14.8989H329.055V2.70161H324.787V0.272276H335.98V2.70161H331.667V14.8989Z" fill="white"/>
<path d="M343.336 7.58563C343.336 9.24163 343.743 10.5736 344.557 11.583C345.369 12.5776 346.453 13.0736 347.809 13.0736C349.148 13.0736 350.225 12.5776 351.039 11.583C351.853 10.5736 352.259 9.24163 352.259 7.58563C352.259 5.88297 351.853 4.5283 351.039 3.51897C350.225 2.4963 349.148 1.98297 347.809 1.98297C346.453 1.98297 345.369 2.4963 344.557 3.51897C343.743 4.5283 343.336 5.88297 343.336 7.58563ZM341.62 7.58563C341.62 5.4323 342.185 3.7003 343.313 2.38963C344.444 1.09497 345.941 0.446968 347.809 0.446968C349.675 0.446968 351.167 1.09497 352.281 2.38963C353.411 3.7003 353.975 5.4323 353.975 7.58563C353.975 9.70697 353.411 11.4096 352.281 12.6896C351.167 13.9696 349.675 14.6096 347.809 14.6096C345.941 14.6096 344.444 13.9696 343.313 12.6896C342.185 11.4096 341.62 9.70697 341.62 7.58563" fill="white"/>
<path d="M347.81 2.43066C346.586 2.43066 345.638 2.87733 344.906 3.79599C344.161 4.72266 343.783 5.99599 343.783 7.58533C343.783 9.12933 344.161 10.3787 344.903 11.3027C345.633 12.1933 346.582 12.6267 347.81 12.6267C349.019 12.6267 349.962 12.1933 350.693 11.3C351.434 10.38 351.811 9.12933 351.811 7.58533C351.811 5.99599 351.434 4.72266 350.69 3.79999C349.958 2.87733 349.014 2.43066 347.81 2.43066ZM347.81 13.5213C346.319 13.5213 345.109 12.964 344.21 11.8667C343.334 10.7773 342.89 9.33733 342.89 7.58533C342.89 5.78666 343.334 4.32533 344.209 3.23866C345.105 2.10933 346.317 1.53599 347.81 1.53599C349.285 1.53599 350.49 2.10933 351.389 3.23999C352.262 4.32399 352.705 5.78666 352.705 7.58533C352.705 9.33866 352.262 10.7787 351.387 11.864C350.487 12.964 349.283 13.5213 347.81 13.5213ZM347.81 0.894662C346.061 0.894662 344.701 1.47866 343.651 2.68399C342.601 3.90266 342.066 5.55199 342.066 7.58533C342.066 9.58666 342.599 11.2053 343.649 12.3933C344.699 13.584 346.061 14.1627 347.81 14.1627C349.558 14.1627 350.909 13.5853 351.945 12.396C352.995 11.2053 353.527 9.58666 353.527 7.58533C353.527 5.55066 352.994 3.90133 351.942 2.68133C350.907 1.47866 349.555 0.894662 347.81 0.894662V0.894662ZM347.81 15.0573C345.818 15.0573 344.193 14.36 342.979 12.9853C341.782 11.6267 341.171 9.81199 341.171 7.58533C341.171 5.33199 341.779 3.48666 342.975 2.09733C344.19 0.706661 345.817 -5.46034e-06 347.81 -5.46034e-06C349.803 -5.46034e-06 351.422 0.706661 352.619 2.09733C353.815 3.48399 354.422 5.33066 354.422 7.58533C354.422 9.81199 353.814 11.628 352.615 12.9853C351.421 14.3587 349.802 15.0573 347.81 15.0573Z" fill="white"/>
<path d="M362.863 7.26858H367.063C367.891 7.26858 368.563 7.04192 369.075 6.58458C369.571 6.11392 369.821 5.49925 369.821 4.73925C369.821 3.99392 369.571 3.39392 369.075 2.93792C368.563 2.48192 367.891 2.25525 367.063 2.25525H362.863V7.26858ZM361.146 14.4512V0.719249H367.063C368.421 0.719249 369.503 1.08858 370.317 1.82592C371.13 2.55125 371.537 3.52325 371.537 4.74458C371.537 5.49925 371.341 6.18458 370.949 6.80192C370.527 7.42058 369.978 7.85792 369.301 8.11525C369.798 8.46192 370.189 8.88192 370.475 9.37792C370.777 9.90325 370.927 10.4526 370.927 11.0232L371.017 13.6846C371.017 13.8339 371.102 14.0379 371.267 14.2939L371.355 14.4512H369.639L369.594 14.3606C369.398 14.0299 369.301 13.7739 369.301 13.5926L369.211 11.0179C369.211 10.3552 368.917 9.81392 368.33 9.39125C367.787 9.00058 367.139 8.80591 366.389 8.80591H362.863V14.4512H361.146Z" fill="white"/>
<path d="M363.31 6.82257H367.063C367.786 6.82257 368.346 6.63457 368.777 6.25191C369.175 5.87457 369.373 5.37591 369.373 4.73991C369.373 4.11991 369.177 3.63857 368.773 3.26657C368.346 2.88791 367.786 2.70257 367.063 2.70257H363.31V6.82257ZM367.063 7.71591H362.417V1.80791H367.063C368.003 1.80791 368.779 2.07591 369.373 2.60524C369.969 3.15191 370.267 3.86657 370.267 4.73991C370.267 5.62257 369.97 6.35191 369.382 6.90924C368.779 7.44791 368.003 7.71591 367.063 7.71591ZM369.906 14.0039H370.623C370.587 13.8932 370.57 13.7866 370.57 13.6839L370.479 11.0386C370.479 10.5332 370.347 10.0546 370.087 9.59991C369.837 9.16391 369.486 8.78924 369.047 8.48257L368.349 7.99724L369.142 7.69724C369.737 7.47191 370.209 7.09724 370.579 6.55057C370.921 6.01324 371.09 5.41857 371.09 4.74391C371.09 3.64791 370.739 2.80257 370.019 2.15991C369.291 1.49991 368.299 1.16657 367.063 1.16657H361.594V14.0039H362.417V8.35857H366.389C367.231 8.35857 367.974 8.58391 368.593 9.02924C369.298 9.53724 369.657 10.2066 369.657 11.0172L369.749 13.5772C369.749 13.6052 369.753 13.7186 369.906 14.0039V14.0039ZM372.125 14.8986H369.365L369.195 14.5639C368.966 14.1772 368.854 13.8612 368.854 13.5932L368.763 11.0346C368.763 10.5039 368.537 10.0906 368.069 9.75457C367.601 9.41591 367.05 9.25191 366.389 9.25191H363.31V14.8986H360.699V0.271907H367.063C368.529 0.271907 369.723 0.683907 370.617 1.49457C371.522 2.30124 371.985 3.39591 371.985 4.74391C371.985 5.58124 371.763 6.35457 371.326 7.04257C370.993 7.53191 370.591 7.91991 370.119 8.20924C370.413 8.49191 370.663 8.80791 370.862 9.15457C371.202 9.74657 371.374 10.3746 371.374 11.0239L371.463 13.6706C371.463 13.6879 371.471 13.7879 371.642 14.0492L372.125 14.8986Z" fill="white"/>
<path d="M381.283 8.80567H385.257L383.271 2.86434L381.283 8.80567ZM377.693 14.451L382.164 0.719005H384.377L388.851 14.451H387.133L385.755 10.3417H380.787L379.408 14.451H377.693Z" fill="white"/>
<path d="M381.904 8.35839H384.638L383.27 4.27306L381.904 8.35839ZM385.878 9.25172H380.661L383.27 1.45439L385.878 9.25172ZM387.454 14.0037H388.234L384.052 1.16639H382.488L378.308 14.0037H379.086L380.465 9.89439H386.077L387.454 14.0037ZM389.465 14.8984H386.813L385.433 10.7877H381.106L379.729 14.8984H377.076L381.838 0.271724H384.702L389.465 14.8984Z" fill="white"/>
<path d="M79.6733 74.9157V31.0384C79.6733 19.0024 83.1547 9.47707 90.0053 2.64907H72.1427C69.188 2.64907 67.3613 3.77574 65.6733 6.86774L53.1573 29.7904C52.1733 31.4771 51.7507 32.1811 50.6253 32.1811H49.36C48.2347 32.1811 47.8133 31.4771 46.828 29.7904L34.1733 6.86774C32.4853 3.77574 30.656 2.64907 27.7027 2.64907H5.06267C1.54667 2.64907 0 4.19575 0 7.71175V98.8397C0 102.354 1.54667 103.902 5.06267 103.902H26.0173C29.532 103.902 31.0787 102.354 31.0787 98.8397V49.3371L39.376 64.6664C41.064 67.8997 43.1733 69.1664 46.828 69.1664H52.4533C56.1093 69.1664 58.2187 67.8997 59.908 64.6664L68.204 49.3371V98.8397C68.204 102.354 69.6107 103.902 73.2667 103.902H90.6013C83.3507 97.0384 79.6733 87.3011 79.6733 74.9157Z" fill="white"/>
<path d="M124.05 103.902C100.425 103.902 89.4565 94.762 89.4565 75.214V31.338C89.4565 11.79 100.425 2.64871 124.05 2.64871H159.209C162.723 2.64871 164.271 4.19538 164.271 7.71271V24.7287C164.271 28.2434 162.723 29.7914 159.209 29.7914H129.958C124.05 29.7914 121.378 32.0407 121.378 36.822V70.4327C121.378 75.214 123.49 77.3234 127.847 77.3234H141.489V55.3847C141.489 51.87 143.035 50.322 146.551 50.322H168.35C171.865 50.322 173.411 51.87 173.411 55.3847V98.8394C173.411 102.354 171.865 103.902 168.35 103.902H124.05Z" fill="white"/>
</svg>
