<svg width="250" height="250" viewBox="0 0 250 250" fill="none" xmlns="http://www.w3.org/2000/svg">
<circle cx="125" cy="125" r="125" fill="white"/>
<path d="M116.963 150.227V98.4804C116.963 84.2871 121.068 73.0524 129.147 65.0004H108.08C104.597 65.0004 102.441 66.3284 100.451 69.9764L85.6907 97.0098C84.5307 98.9991 84.032 99.8284 82.7053 99.8284H81.2133C79.8853 99.8284 79.388 98.9991 78.2267 97.0098L63.3027 69.9764C61.312 66.3284 59.156 65.0004 55.6707 65.0004H28.9707C24.824 65.0004 23 66.8244 23 70.9711V178.442C23 182.587 24.824 184.412 28.9707 184.412H53.6827C57.8267 184.412 59.6533 182.587 59.6533 178.442V120.062L69.4373 138.14C71.4293 141.954 73.916 143.447 78.2267 143.447H84.8613C89.172 143.447 91.66 141.954 93.652 138.14L103.436 120.062V178.442C103.436 182.587 105.096 184.412 109.407 184.412H129.851C121.299 176.318 116.963 164.834 116.963 150.227Z" fill="#8AAADD"/>
<path d="M169.297 184.412C141.436 184.412 128.499 173.632 128.499 150.579V98.8333C128.499 75.78 141.436 65 169.297 65H210.761C214.905 65 216.731 66.8253 216.731 70.972V91.04C216.731 95.1853 214.905 97.0093 210.761 97.0093H176.264C169.297 97.0093 166.147 99.6627 166.147 105.303V144.94C166.147 150.579 168.636 153.067 173.775 153.067H189.863V127.195C189.863 123.049 191.688 121.223 195.833 121.223H221.541C225.687 121.223 227.511 123.049 227.511 127.195V178.441C227.511 182.587 225.687 184.412 221.541 184.412H169.297Z" fill="#7A8BA0"/>
</svg>
