<svg width="205" height="120" viewBox="0 0 205 120" fill="none" xmlns="http://www.w3.org/2000/svg">
<path d="M93.9627 85.2271V33.4804C93.9627 19.2871 98.068 8.05242 106.147 0.000424191H85.08C81.5973 0.000424191 79.4413 1.32843 77.4507 4.97643L62.6907 32.0098C61.5307 33.9991 61.032 34.8284 59.7053 34.8284H58.2133C56.8853 34.8284 56.388 33.9991 55.2267 32.0098L40.3027 4.97643C38.312 1.32843 36.156 0.000424191 32.6707 0.000424191H5.97066C1.824 0.000424191 0 1.82442 0 5.97109V113.442C0 117.587 1.824 119.412 5.97066 119.412H30.6827C34.8267 119.412 36.6533 117.587 36.6533 113.442V55.0618L46.4373 73.1404C48.4293 76.9538 50.916 78.4471 55.2267 78.4471H61.8613C66.172 78.4471 68.66 76.9538 70.652 73.1404L80.436 55.0618V113.442C80.436 117.587 82.096 119.412 86.4067 119.412H106.851C98.2987 111.318 93.9627 99.8337 93.9627 85.2271Z" fill="#8AAADD"/>
<path d="M146.297 119.412C118.436 119.412 105.499 108.632 105.499 85.5787V33.8333C105.499 10.78 118.436 -3.05502e-06 146.297 -3.05502e-06H187.761C191.905 -3.05502e-06 193.731 1.82533 193.731 5.97199V26.04C193.731 30.1853 191.905 32.0093 187.761 32.0093H153.264C146.297 32.0093 143.147 34.6627 143.147 40.3027V79.94C143.147 85.5787 145.636 88.0667 150.775 88.0667H166.863V62.1947C166.863 58.0493 168.688 56.2227 172.833 56.2227H198.541C202.687 56.2227 204.511 58.0493 204.511 62.1947V113.441C204.511 117.587 202.687 119.412 198.541 119.412H146.297Z" fill="#7A8BA0"/>
</svg>
